Coordinates
version=1
nRows=14
nColumns=46
inDegrees=yes

Units are S.I. units (second, meters, Newtons, ...)
Angles are in degrees.

endheader
time	pelvis_tilt	pelvis_list	pelvis_rotation	pelvis_tx	pelvis_ty	pelvis_tz	bb_angle	bb_tx	bb_ty	bb_tz	hip_flexion_r	hip_adduction_r	hip_rotation_r	knee_angle_r	knee_angle_r_beta	ankle_angle_r	subtalar_angle_r	mtp_angle_r	crank_angle_r	hip_flexion_l	hip_adduction_l	hip_rotation_l	knee_angle_l	knee_angle_l_beta	ankle_angle_l	subtalar_angle_l	mtp_angle_l	crank_angle_l	lumbar_extension	lumbar_bending	lumbar_rotation	arm_flex_r	arm_add_r	arm_rot_r	elbow_flex_r	pro_sup_r	wrist_flex_r	wrist_dev_r	arm_flex_l	arm_add_l	arm_rot_l	elbow_flex_l	pro_sup_l	wrist_flex_l	wrist_dev_l
      0.00500000	    -33.71846684	     -1.94812016	     -5.18897322	      0.14272730	      1.02774020	     -0.20810334	      0.00000000	      0.50000000	      0.00000000	      0.25000000	     91.52549696	      2.20153238	      1.66998078	     74.69816890	      1.30372899	     14.84999207	     -4.94876665	      0.00000000	      0.00000000	     60.48301151	     -7.02579681	      4.99085136	     70.51133425	      1.23065494	     21.18395240	    -11.91933795	      0.00000000	      0.00000000	    -33.86783727	      0.34890759	      4.73520795	     83.89913433	     -6.91275483	     31.55236004	     41.33056142	     28.50835370	      0.00000000	      0.00000000	     79.44582024	    -10.35958904	     25.63180186	     46.42859674	     29.42070956	      0.00000000	      0.00000000
      0.01000000	    -33.67082046	     -1.88845566	     -5.18337054	      0.14278951	      1.02789192	     -0.20810592	      0.00000000	      0.50000000	      0.00000000	      0.25000000	     91.47433214	      2.20505803	      1.74447990	     74.68098979	      1.30342916	     14.74484331	     -5.06720540	      0.00000000	      0.00000000	     60.40265390	     -6.96797042	      4.90951091	     70.47679320	      1.23005209	     21.09478765	    -12.09896488	      0.00000000	      0.00000000	    -33.94696668	      0.28531992	      4.67445810	     84.07165794	     -7.30385764	     32.38920387	     40.68767967	     33.24443624	      0.00000000	      0.00000000	     79.65868295	    -10.71722638	     26.24352290	     45.63794033	     33.90588246	      0.00000000	      0.00000000
      0.01500000	    -33.67428949	     -1.85940595	     -5.17658559	      0.14285673	      1.02789822	     -0.20813247	      0.00000000	      0.50000000	      0.00000000	      0.25000000	     91.47136480	      2.19752146	      1.77928885	     74.66989722	      1.30323556	     14.73337905	     -5.08171373	      0.00000000	      0.00000000	     60.39370801	     -6.93320522	      4.89702575	     70.47678696	      1.23005198	     21.12374241	    -12.13907707	      0.00000000	      0.00000000	    -33.98454663	      0.26633679	      4.65389294	     83.85244019	     -7.35174478	     31.87672656	     41.26853375	     33.55748571	      0.00000000	      0.00000000	     79.46983409	    -10.74363423	     25.82070550	     46.11931017	     34.19870257	      0.00000000	      0.00000000
      0.02000000	    -33.56223928	     -1.85615628	     -5.09314854	      0.14302819	      1.02823372	     -0.20864835	      0.00000000	      0.50000000	      0.00000000	      0.25000000	     91.32772428	      2.03078371	      1.71853161	     74.65404445	      1.30295888	     14.75397908	     -5.00278514	      0.00000000	      0.00000000	     60.22603951	     -6.78400632	      4.98166751	     70.40298173	      1.22876383	     21.09747799	    -12.22526097	      0.00000000	      0.00000000	    -34.09100540	      0.33544231	      4.57965415	     84.03953767	     -6.85133943	     30.93725610	     40.04589399	     35.62326453	      0.00000000	      0.00000000	     79.66899134	    -10.36367015	     25.16991078	     45.00631829	     36.17701387	      0.00000000	      0.00000000
      0.02500000	    -33.58644018	     -1.83168280	     -5.10281660	      0.14300851	      1.02820008	     -0.20854214	      0.00000000	      0.50000000	      0.00000000	      0.25000000	     91.39791198	      1.98675331	      1.67438085	     74.74413674	      1.30453128	     14.82456840	     -4.91781289	      0.00000000	      0.00000000	     60.25155858	     -6.79733394	      4.95739342	     70.42072315	      1.22907348	     21.13769144	    -12.19545466	      0.00000000	      0.00000000	    -34.04673609	      0.30427047	      4.57302113	     84.11574349	     -7.24182748	     31.69780213	     39.87406105	     38.23818515	      0.00000000	      0.00000000	     79.70964568	    -10.80602922	     25.97889258	     44.83316128	     38.67168750	      0.00000000	      0.00000000
      0.03000000	    -33.62239787	     -1.87262988	     -5.08869136	      0.14300930	      1.02830247	     -0.20861137	      0.00000000	      0.50000000	      0.00000000	      0.25000000	     91.38669464	      2.03438056	      1.73848548	     74.68264086	      1.30345798	     14.77150348	     -5.00124225	      0.00000000	      0.00000000	     60.28791839	     -6.79875400	      4.99699026	     70.38922489	      1.22852373	     21.05374457	    -12.24623535	      0.00000000	      0.00000000	    -34.02455010	      0.35668680	      4.59587643	     84.06402401	     -7.11320082	     31.26846792	     39.68041929	     38.73631550	      0.00000000	      0.00000000	     79.68398510	    -10.63559335	     25.55417462	     44.67903780	     39.16921437	      0.00000000	      0.00000000
      0.03500000	    -33.60351719	     -1.92507724	     -5.10045648	      0.14307417	      1.02841398	     -0.20851406	      0.00000000	      0.50000000	      0.00000000	      0.25000000	     91.33950177	      2.06881379	      1.69904958	     74.66366361	      1.30312676	     14.81865967	     -5.00169501	      0.00000000	      0.00000000	     60.26786842	     -6.86382317	      5.00824614	     70.38500275	      1.22845004	     21.00123076	    -12.26786830	      0.00000000	      0.00000000	    -34.07474264	      0.39135262	      4.63507766	     84.11238498	     -7.24423029	     31.50166869	     39.62791891	     40.08438982	      0.00000000	      0.00000000	     79.68917942	    -10.73097339	     25.68904296	     44.58631412	     40.40713984	      0.00000000	      0.00000000
      0.04000000	    -33.61150338	     -1.90426654	     -5.08253537	      0.14308519	      1.02839488	     -0.20854094	      0.00000000	      0.50000000	      0.00000000	      0.25000000	     91.34995287	      2.05180685	      1.72976917	     74.67192981	      1.30327103	     14.79684132	     -5.02999599	      0.00000000	      0.00000000	     60.27311099	     -6.83254093	      5.00731915	     70.37561337	      1.22828617	     21.01798862	    -12.24669078	      0.00000000	      0.00000000	    -34.05442637	      0.38378573	      4.60423822	     84.07377826	     -7.08692033	     31.02360983	     39.42120458	     40.45935811	      0.00000000	      0.00000000	     79.70454709	    -10.58142027	     25.25817350	     44.38588777	     40.75800829	      0.00000000	      0.00000000
      0.04500000	    -33.57717503	     -1.95323087	     -5.06132272	      0.14315636	      1.02845068	     -0.20863271	      0.00000000	      0.50000000	      0.00000000	      0.25000000	     91.29612601	      2.01554927	      1.67248087	     74.69023137	      1.30359046	     14.97450232	     -4.84067054	      0.00000000	      0.00000000	     60.24255951	     -6.84696923	      5.04879876	     70.38703124	      1.22848545	     21.08838577	    -12.13232399	      0.00000000	      0.00000000	    -34.12693064	      0.43986047	      4.66881217	     83.95652783	     -7.08900181	     30.41669127	     39.71686504	     40.74781831	      0.00000000	      0.00000000	     79.53432408	    -10.48847880	     24.81063985	     44.79884913	     41.07034749	      0.00000000	      0.00000000
      0.05000000	    -33.59762602	     -1.86248051	     -5.09353118	      0.14317104	      1.02844171	     -0.20849545	      0.00000000	      0.50000000	      0.00000000	      0.25000000	     91.33202111	      2.07013797	      1.78640065	     74.69137976	      1.30361050	     14.87612372	     -5.03850369	      0.00000000	      0.00000000	     60.23890781	     -6.82820052	      4.94140807	     70.34953673	      1.22783104	     20.99214633	    -12.28333031	      0.00000000	      0.00000000	    -34.06429508	      0.33248078	      4.57509314	     84.02832712	     -6.97562343	     30.69113330	     39.30748169	     41.12605021	      0.00000000	      0.00000000	     79.70040172	    -10.50953804	     25.02753816	     44.17491022	     41.40975077	      0.00000000	      0.00000000
      0.05500000	    -33.68085196	     -1.92344354	     -5.05107854	      0.14314658	      1.02831508	     -0.20859478	      0.00000000	      0.50000000	      0.00000000	      0.25000000	     91.40234218	      2.02492448	      1.71953049	     74.68357052	      1.30347420	     14.92326246	     -4.98053420	      0.00000000	      0.00000000	     60.34633821	     -6.81652808	      5.03740713	     70.34858949	      1.22781451	     20.95905544	    -12.29431036	      0.00000000	      0.00000000	    -33.99856080	      0.42546619	      4.62758092	     83.91095428	     -7.08233785	     30.49315483	     39.61609212	     41.31731163	      0.00000000	      0.00000000	     79.54489562	    -10.52772046	     24.87395371	     44.53989539	     41.60573683	      0.00000000	      0.00000000
      0.06000000	    -33.68179229	     -1.87950635	     -5.02938525	      0.14317263	      1.02828542	     -0.20861863	      0.00000000	      0.50000000	      0.00000000	      0.25000000	     91.42822536	      1.99418933	      1.75699510	     74.73156728	      1.30431190	     14.97582916	     -4.93252099	      0.00000000	      0.00000000	     60.33497448	     -6.76231859	      5.01689305	     70.31665981	      1.22725723	     20.90727463	    -12.37539266	      0.00000000	      0.00000000	    -33.95976001	      0.39618643	      4.53803901	     83.95544458	     -6.87904690	     30.30749428	     39.23372297	     41.52390309	      0.00000000	      0.00000000	     79.55786472	    -10.42842026	     24.64726032	     44.31111936	     41.80334929	      0.00000000	      0.00000000
      0.06500000	    -33.62954460	     -1.89126745	     -5.04124279	      0.14320874	      1.02839648	     -0.20856406	      0.00000000	      0.50000000	      0.00000000	      0.25000000	     91.36959306	      2.02452383	      1.75175224	     74.73969965	      1.30445384	     14.94665142	     -5.05670714	      0.00000000	      0.00000000	     60.27212072	     -6.79297618	      5.00781540	     70.30530573	      1.22705907	     20.91938035	    -12.28375684	      0.00000000	      0.00000000	    -34.03231248	      0.39844063	      4.51636326	     84.01026095	     -6.71988065	     30.04495230	     39.00062866	     41.88573776	      0.00000000	      0.00000000	     79.61407759	    -10.39554621	     24.45977703	     44.15732381	     42.12674683	      0.00000000	      0.00000000
      0.07000000	    -33.65946648	     -1.87399310	     -5.04495698	      0.14330831	      1.02843124	     -0.20854632	      0.00000000	      0.50000000	      0.00000000	      0.25000000	     91.39544085	      2.02483935	      1.75739455	     74.74444201	      1.30453661	     14.93814485	     -5.08244614	      0.00000000	      0.00000000	     60.25225696	     -6.78168512	      5.00678411	     70.21345208	      1.22545592	     20.94723890	    -12.32239325	      0.00000000	      0.00000000	    -34.02211883	      0.35638812	      4.48061749	     83.81295455	     -6.76744261	     29.70780285	     39.51641515	     41.95529840	      0.00000000	      0.00000000	     79.39587879	    -10.41914525	     24.19829391	     44.55602515	     42.18526591	      0.00000000	      0.00000000
